<svg width="30" height="40" viewBox="0 0 30 40" fill="none" xmlns="http://www.w3.org/2000/svg">
<path d="M4.58268 35.4635C2.29102 35.4635 0.416016 37.3385 0.416016 39.6302H29.5827C29.5827 37.3385 27.7077 35.4635 25.416 35.4635H17.0827V31.2969H23.3327C25.6243 31.2969 27.4993 29.4219 27.4993 27.1302H10.8327C7.37435 27.1302 4.58268 24.3385 4.58268 20.8802C4.58268 18.6094 5.81185 16.6302 7.64518 15.526C8.49935 16.7552 9.85352 17.6094 11.4577 17.7344C12.916 17.8594 14.291 17.3385 15.3118 16.4427L16.541 19.7969L18.4993 19.0885L19.2077 21.0469L23.1243 19.6302L22.416 17.6719L24.3743 16.9635L18.666 1.29687L16.7077 2.00521L15.9993 0.046875L12.0827 1.46354L12.791 3.42187L10.8327 4.15104L11.9993 7.38021C9.56185 7.29687 7.43685 8.94271 6.83268 11.2552C3.06185 12.8385 0.416016 16.5469 0.416016 20.8802C0.416016 26.6302 5.08268 31.2969 10.8327 31.2969V35.4635H4.58268ZM16.791 5.29687L20.3535 15.0885L18.3952 15.7969L14.8327 6.00521L16.791 5.29687ZM11.8743 10.4635C13.0202 10.4635 13.9577 11.401 13.9577 12.5469C13.9577 13.6927 13.0202 14.6302 11.8743 14.6302C10.7285 14.6302 9.79102 13.6927 9.79102 12.5469C9.79102 11.401 10.7285 10.4635 11.8743 10.4635Z" fill="#04435E"/>
</svg>
