<svg width="40" height="21" viewBox="0 0 40 21" fill="none" xmlns="http://www.w3.org/2000/svg">
<path d="M20 11.57C22.7167 11.57 25.1167 12.22 27.0667 13.07C28.8667 13.87 30 15.67 30 17.62V20.32H10V17.6367C10 15.67 11.1333 13.87 12.9333 13.0867C14.8833 12.22 17.2833 11.57 20 11.57ZM6.66667 11.9867C8.5 11.9867 10 10.4867 10 8.65334C10 6.82001 8.5 5.32001 6.66667 5.32001C4.83333 5.32001 3.33333 6.82001 3.33333 8.65334C3.33333 10.4867 4.83333 11.9867 6.66667 11.9867ZM8.55 13.82C7.93333 13.72 7.31667 13.6533 6.66667 13.6533C5.01667 13.6533 3.45 14.0033 2.03333 14.62C0.8 15.1533 0 16.3533 0 17.7033V20.32H7.5V17.6367C7.5 16.2533 7.88333 14.9533 8.55 13.82ZM33.3333 11.9867C35.1667 11.9867 36.6667 10.4867 36.6667 8.65334C36.6667 6.82001 35.1667 5.32001 33.3333 5.32001C31.5 5.32001 30 6.82001 30 8.65334C30 10.4867 31.5 11.9867 33.3333 11.9867ZM40 17.7033C40 16.3533 39.2 15.1533 37.9667 14.62C36.55 14.0033 34.9833 13.6533 33.3333 13.6533C32.6833 13.6533 32.0667 13.72 31.45 13.82C32.1167 14.9533 32.5 16.2533 32.5 17.6367V20.32H40V17.7033ZM20 0.320007C22.7667 0.320007 25 2.55334 25 5.32001C25 8.08667 22.7667 10.32 20 10.32C17.2333 10.32 15 8.08667 15 5.32001C15 2.55334 17.2333 0.320007 20 0.320007Z" fill="#04435E"/>
</svg>
