<svg width="40" height="51" viewBox="0 0 40 51" fill="none" xmlns="http://www.w3.org/2000/svg">
<path fill-rule="evenodd" clip-rule="evenodd" d="M37.6355 46.8356L32.8747 45.9811L30.5106 50.2088C28.7976 52.3328 27.7112 48.8416 27.231 47.6249L22.6371 38.958C23.695 38.5917 24.9727 37.5297 26.2992 36.3416C28.9156 36.3945 31.3529 35.9347 33.1473 33.656L38.4371 43.8611L38.8969 44.8377C39.2549 46.1113 39.0678 46.9536 37.6762 46.8356H37.6355ZM2.36529 46.8356L7.12603 45.9811L9.51047 50.2088C11.2235 52.3328 12.3099 48.8416 12.7901 47.6249L17.3637 38.958C16.3057 38.5917 15.028 37.5297 13.7015 36.3416C11.0852 36.3945 8.64784 35.9347 6.8534 33.656L1.56369 43.8611L1.12424 44.8255C0.762096 46.0991 0.953339 46.9414 2.36529 46.8234V46.8356ZM29.6521 4.13537C29.9546 4.25061 30.2313 4.42489 30.4659 4.64806L32.7933 6.7965C33.0277 7.01667 33.2207 7.27715 33.363 7.56554C33.5053 7.86185 33.583 8.18502 33.5909 8.51362C33.6013 8.84234 33.5474 9.16994 33.4322 9.47797C33.3175 9.78467 33.1369 10.0625 32.9032 10.2918L32.594 10.6295C33.1041 11.5313 33.5135 12.4865 33.8147 13.4778H34.0385C34.3671 13.4627 34.6954 13.5154 35.0028 13.6324C35.3057 13.7489 35.5824 13.9246 35.8166 14.1492C36.0535 14.3675 36.2432 14.632 36.3741 14.9264C36.5075 15.2198 36.5835 15.5361 36.5979 15.8582L36.7159 19.0605C36.7337 19.3811 36.6866 19.702 36.5775 20.0041C36.4685 20.3061 36.2996 20.583 36.0811 20.8183C35.8593 21.0607 35.5908 21.2559 35.2917 21.392C34.9924 21.5233 34.6704 21.5952 34.3436 21.6036H33.8798C33.5992 22.5916 33.2131 23.5465 32.7282 24.4519L32.8951 24.5984L32.9398 24.6432C33.1714 24.8673 33.3554 25.1358 33.481 25.4326C33.6122 25.7262 33.6841 26.0429 33.6926 26.3644C33.7046 26.6825 33.6563 27.0001 33.5502 27.3002C33.4407 27.5992 33.2765 27.8752 33.066 28.114L33.0375 28.1425L30.8728 30.4659C30.6561 30.7102 30.3934 30.9093 30.0997 31.0519C29.7976 31.1941 29.4691 31.2717 29.1353 31.2797C28.8027 31.2887 28.4714 31.2349 28.1587 31.121C27.8526 31.0052 27.5751 30.8248 27.3449 30.5921L27.0072 30.2584C26.1185 30.7549 25.1785 31.1533 24.2037 31.4466V31.6785C24.2219 32.0064 24.1677 32.3342 24.045 32.6388C23.9339 32.9434 23.7591 33.2209 23.5323 33.4526C23.3148 33.6904 23.0501 33.8802 22.7551 34.01C22.4635 34.1454 22.1484 34.2227 21.8274 34.2379L18.6251 34.3518C18.2988 34.3733 17.9716 34.3277 17.6637 34.2179C17.3558 34.108 17.0736 33.9362 16.8347 33.713C16.5939 33.4897 16.399 33.2216 16.261 32.9236C16.1218 32.6256 16.0403 32.3039 16.0209 31.9755V31.5076C15.0327 31.2276 14.0777 30.8415 13.1726 30.3561L13.018 30.5229L12.9773 30.5677C12.7542 30.8005 12.4855 30.9848 12.1879 31.1088C11.5978 31.3666 10.9319 31.3914 10.3243 31.178C10.0261 31.0669 9.7504 30.9028 9.51047 30.6938L9.48199 30.6653L7.15044 28.4721C6.91592 28.2489 6.72302 27.9858 6.58078 27.6949C6.44185 27.3974 6.36435 27.075 6.35292 26.7469C6.34688 26.4198 6.40066 26.0943 6.51161 25.7866C6.63622 25.485 6.81556 25.2091 7.04058 24.9728L7.37017 24.6188C6.87592 23.7276 6.47764 22.7864 6.18202 21.8111H5.95415C5.62629 21.8293 5.29844 21.7752 4.99387 21.6525C4.69028 21.5392 4.41326 21.3647 4.18006 21.1398C3.944 20.9207 3.75442 20.6564 3.62261 20.3626C3.49101 20.0685 3.41513 19.7525 3.39881 19.4308L3.28081 16.2285C3.26339 15.9033 3.30616 15.5778 3.40695 15.2682C3.52584 14.9674 3.6997 14.6915 3.91965 14.4544C4.14181 14.2092 4.41003 14.0101 4.70904 13.8684C5.00899 13.7391 5.33062 13.6673 5.65712 13.6568H6.12098C6.40319 12.6688 6.79061 11.7139 7.27658 10.8085L7.12603 10.6458C6.88002 10.4272 6.68429 10.1579 6.5523 9.85639C6.41229 9.55928 6.33473 9.2366 6.32443 8.90831C6.30943 8.58063 6.3635 8.25346 6.48312 7.94803C6.59933 7.64593 6.77349 7.36947 6.99582 7.13423L9.14426 4.79454C9.36363 4.55324 9.62574 4.35459 9.91737 4.20861C10.2146 4.06945 10.5374 3.99326 10.8654 3.98481C11.1922 3.97428 11.5179 4.02536 11.8257 4.13537C12.1324 4.25003 12.4102 4.4306 12.6395 4.66434L13.0017 4.998C13.8885 4.50343 14.8256 4.10511 15.7971 3.80984V3.5657C15.7802 3.23791 15.8343 2.91035 15.9558 2.60542C16.071 2.30284 16.2453 2.0262 16.4685 1.79162C16.684 1.55134 16.9473 1.3587 17.2416 1.22602C17.5335 1.09168 17.8484 1.01433 18.1693 0.998158L21.3676 0.880157C21.6951 0.867468 22.0221 0.91576 22.3319 1.02257C22.6375 1.13366 22.9152 1.31001 23.1457 1.53934C23.4003 1.75604 23.6068 2.02352 23.752 2.32466C23.8814 2.62461 23.9532 2.94623 23.9636 3.27273V3.7366C24.9514 4.01781 25.9062 4.40384 26.8119 4.88813L26.9543 4.73758C27.1733 4.49305 27.4426 4.29872 27.7437 4.16792C28.0404 4.02679 28.3633 3.94918 28.6918 3.94005C29.0191 3.92553 29.3459 3.97815 29.6521 4.09468V4.13537ZM16.3586 15.1217L18.6739 17.3027L23.3207 12.5582C23.7805 12.0903 24.0694 11.72 24.635 12.3019L26.4782 14.1858C27.0845 14.784 27.052 15.1339 26.4782 15.6914L19.7196 22.3279C18.4989 23.5079 18.7268 23.5812 17.5101 22.3727L13.254 18.1409C13.1985 18.0868 13.1555 18.0213 13.1278 17.949C13.1 17.8766 13.0883 17.7991 13.0933 17.7218C13.0983 17.6445 13.12 17.5692 13.1569 17.5011C13.1937 17.433 13.2449 17.3736 13.3069 17.3271L15.4431 15.1136C15.7686 14.7799 16.025 14.8002 16.3586 15.1136V15.1217ZM17.9455 7.39057C19.9682 6.98398 22.0659 7.18619 23.9737 7.97164C25.8814 8.75709 27.5134 10.0905 28.6634 11.8034C29.8134 13.5162 30.4298 15.5316 30.4346 17.5946C30.4394 19.6577 29.8324 21.6759 28.6903 23.3941C27.5483 25.1123 25.9225 26.4533 24.0185 27.2476C22.1144 28.0419 20.0176 28.2539 17.9931 27.8567C15.9686 27.4595 14.1073 26.471 12.6445 25.0161C11.1817 23.5613 10.1831 21.7054 9.77495 19.6831C9.5043 18.3394 9.50095 16.9557 9.76508 15.6107C10.0292 14.2658 10.5557 12.9861 11.3144 11.8446C12.0731 10.7032 13.0492 9.72232 14.187 8.95809C15.3247 8.19386 16.6019 7.66122 17.9455 7.39057Z" fill="#04435E"/>
</svg>
