<svg width="46" height="42" viewBox="0 0 46 42" fill="none" xmlns="http://www.w3.org/2000/svg">
<path d="M23.4575 37.2344C23.0825 37.6094 22.4159 37.6719 21.9784 37.2344C21.6034 36.8594 21.5409 36.1927 21.9784 35.7552L29.0409 28.6927L26.1034 25.7552L19.0409 32.8177C18.645 33.2344 17.9784 33.2135 17.5617 32.8177C17.1242 32.3802 17.1867 31.7135 17.5617 31.3385L24.6242 24.276L21.6867 21.3385L14.6242 28.401C14.2492 28.776 13.5825 28.8385 13.145 28.401C12.7492 28.0052 12.7492 27.3385 13.145 26.9219L20.2075 19.8594L17.2492 16.9219L10.1867 23.9844C9.81171 24.3594 9.14505 24.4219 8.70755 23.9844C8.31171 23.5677 8.31171 22.9219 8.70755 22.5052L17.8325 13.3802L21.7284 17.2552C23.7075 19.2344 27.1242 19.2135 29.1034 17.2552C31.145 15.2135 31.145 11.9219 29.1034 9.88021L25.2284 6.00521L25.8117 5.42187C27.4367 3.79687 30.0825 3.79687 31.7075 5.42187L40.5409 14.2552C42.1659 15.8802 42.1659 18.526 40.5409 20.151L23.4575 37.2344ZM43.4784 23.1094C46.7284 19.8594 46.7284 14.5885 43.4784 11.3177L34.645 2.48437C31.395 -0.765625 26.1242 -0.765625 22.8534 2.48437L22.27 3.06771L21.6867 2.48437C18.4367 -0.765625 13.1659 -0.765625 9.89505 2.48437L2.52005 9.85938C-0.438285 12.8177 -0.709118 17.4219 1.68671 20.6719L4.70755 17.651C3.89505 16.0885 4.16588 14.1094 5.47838 12.7969L12.8534 5.42187C14.4784 3.79687 17.1242 3.79687 18.7492 5.42187L26.1659 12.8385C26.5409 13.2135 26.6034 13.8802 26.1659 14.3177C25.7284 14.7552 25.0617 14.6927 24.6867 14.3177L17.8325 7.48438L5.74922 19.5469C3.70755 21.5677 3.70755 24.8802 5.74922 26.9219C6.56172 27.7344 7.60338 28.2344 8.70755 28.3802C8.85338 29.4635 9.33255 30.5052 10.1659 31.3385C10.9992 32.1719 12.0409 32.651 13.1242 32.7969C13.27 33.8802 13.7492 34.9219 14.5825 35.7552C15.4159 36.5885 16.4575 37.0677 17.5409 37.2135C17.6867 38.3385 18.1867 39.3594 18.9992 40.1719C19.9784 41.151 21.2909 41.6927 22.6867 41.6927C24.0825 41.6927 25.395 41.151 26.3742 40.1719L43.4784 23.1094Z" fill="#04435E"/>
</svg>
