<svg width="48" height="49" viewBox="0 0 48 49" fill="none" xmlns="http://www.w3.org/2000/svg">
<path d="M44 6.22998H4C1.8 6.22998 0 8.02998 0 10.23V38.23C0 40.43 1.8 42.23 4 42.23H44C46.2 42.23 47.98 40.43 47.98 38.23L48 10.23C48 8.02998 46.2 6.22998 44 6.22998ZM16 12.23C19.32 12.23 22 14.91 22 18.23C22 21.55 19.32 24.23 16 24.23C12.68 24.23 10 21.55 10 18.23C10 14.91 12.68 12.23 16 12.23ZM28 36.23H4V34.23C4 30.23 12 28.03 16 28.03C20 28.03 28 30.23 28 34.23V36.23ZM35.7 28.23H38.98L42 32.23L38.02 36.21C35.4 34.25 33.46 31.45 32.56 28.23C32.2 26.95 32 25.61 32 24.23C32 22.85 32.2 21.51 32.56 20.23C33.46 16.99 35.4 14.21 38.02 12.25L42 16.23L38.98 20.23H35.7C35.26 21.49 35 22.83 35 24.23C35 25.63 35.26 26.97 35.7 28.23Z" fill="white"/>
</svg>
